G75*
%MOIN*%
%OFA0B0*%
%FSLAX25Y25*%
%IPPOS*%
%LPD*%
%AMOC8*
5,1,8,0,0,1.08239X$1,22.5*
%
%ADD10C,0.00800*%
D10*
X0006039Y0008618D02*
X0008539Y0006118D01*
X0013539Y0006118D01*
X0016039Y0008618D01*
X0016039Y0013618D01*
X0013539Y0016118D01*
X0016039Y0018618D01*
X0016039Y0023618D01*
X0013539Y0026118D01*
X0016039Y0028618D01*
X0016039Y0033618D01*
X0013539Y0036118D01*
X0016039Y0038618D01*
X0016039Y0043618D01*
X0013539Y0046118D01*
X0016039Y0048618D01*
X0016039Y0053618D01*
X0013539Y0056118D01*
X0016039Y0058618D01*
X0016039Y0063618D01*
X0013539Y0066118D01*
X0016039Y0068618D01*
X0016039Y0073618D01*
X0013539Y0076118D01*
X0016039Y0078618D01*
X0016039Y0083618D01*
X0013539Y0086118D01*
X0016039Y0088618D01*
X0016039Y0093618D01*
X0013539Y0096118D01*
X0016039Y0098618D01*
X0016039Y0103618D01*
X0013539Y0106118D01*
X0008539Y0106118D01*
X0006039Y0103618D01*
X0006039Y0098618D01*
X0008539Y0096118D01*
X0006039Y0093618D01*
X0006039Y0088618D01*
X0008539Y0086118D01*
X0006039Y0083618D01*
X0006039Y0078618D01*
X0008539Y0076118D01*
X0006039Y0073618D01*
X0006039Y0068618D01*
X0008539Y0066118D01*
X0006039Y0063618D01*
X0006039Y0058618D01*
X0008539Y0056118D01*
X0006039Y0053618D01*
X0006039Y0048618D01*
X0008539Y0046118D01*
X0006039Y0043618D01*
X0006039Y0038618D01*
X0008539Y0036118D01*
X0006039Y0033618D01*
X0006039Y0028618D01*
X0008539Y0026118D01*
X0006039Y0023618D01*
X0006039Y0018618D01*
X0008539Y0016118D01*
X0006039Y0013618D01*
X0006039Y0008618D01*
X0056039Y0008618D02*
X0058539Y0006118D01*
X0063539Y0006118D01*
X0066039Y0008618D01*
X0066039Y0013618D01*
X0063539Y0016118D01*
X0066039Y0018618D01*
X0066039Y0023618D01*
X0063539Y0026118D01*
X0066039Y0028618D01*
X0066039Y0033618D01*
X0063539Y0036118D01*
X0066039Y0038618D01*
X0066039Y0043618D01*
X0063539Y0046118D01*
X0066039Y0048618D01*
X0066039Y0053618D01*
X0063539Y0056118D01*
X0066039Y0058618D01*
X0066039Y0063618D01*
X0063539Y0066118D01*
X0066039Y0068618D01*
X0066039Y0073618D01*
X0063539Y0076118D01*
X0066039Y0078618D01*
X0066039Y0083618D01*
X0063539Y0086118D01*
X0066039Y0088618D01*
X0066039Y0093618D01*
X0063539Y0096118D01*
X0066039Y0098618D01*
X0066039Y0103618D01*
X0063539Y0106118D01*
X0058539Y0106118D01*
X0056039Y0103618D01*
X0056039Y0098618D01*
X0058539Y0096118D01*
X0056039Y0093618D01*
X0056039Y0088618D01*
X0058539Y0086118D01*
X0056039Y0083618D01*
X0056039Y0078618D01*
X0058539Y0076118D01*
X0056039Y0073618D01*
X0056039Y0068618D01*
X0058539Y0066118D01*
X0056039Y0063618D01*
X0056039Y0058618D01*
X0058539Y0056118D01*
X0056039Y0053618D01*
X0056039Y0048618D01*
X0058539Y0046118D01*
X0056039Y0043618D01*
X0056039Y0038618D01*
X0058539Y0036118D01*
X0056039Y0033618D01*
X0056039Y0028618D01*
X0058539Y0026118D01*
X0056039Y0023618D01*
X0056039Y0018618D01*
X0058539Y0016118D01*
X0056039Y0013618D01*
X0056039Y0008618D01*
M02*
