%
M48
M72
T01C0.013780
T02C0.040000
%
T01
X363150Y563150
T02
X110394Y111181
X110394Y211181
X110394Y311181
X110394Y411181
X110394Y511181
X110394Y611181
X110394Y711181
X110394Y811181
X110394Y911181
X110394Y1011181
X362756Y348583
X610394Y311181
X610394Y211181
X610394Y111181
X610394Y411181
X610394Y511181
X610394Y611181
X610394Y711181
X610394Y811181
X610394Y911181
X610394Y1011181
M30
