G75*
%MOIN*%
%OFA0B0*%
%FSLAX25Y25*%
%IPPOS*%
%LPD*%
%AMOC8*
5,1,8,0,0,1.08239X$1,22.5*
%
%ADD10C,0.08200*%
%ADD11R,0.07099X0.07099*%
%ADD12R,0.03950X0.01587*%
%ADD13C,0.03778*%
D10*
X0011039Y0011118D03*
X0011039Y0021118D03*
X0011039Y0031118D03*
X0011039Y0041118D03*
X0011039Y0051118D03*
X0011039Y0061118D03*
X0011039Y0071118D03*
X0011039Y0081118D03*
X0011039Y0091118D03*
X0011039Y0101118D03*
X0036276Y0034858D03*
X0061039Y0031118D03*
X0061039Y0021118D03*
X0061039Y0011118D03*
X0061039Y0041118D03*
X0061039Y0051118D03*
X0061039Y0061118D03*
X0061039Y0071118D03*
X0061039Y0081118D03*
X0061039Y0091118D03*
X0061039Y0101118D03*
D11*
G36*
X0036318Y0061297D02*
X0041337Y0056278D01*
X0036318Y0051259D01*
X0031299Y0056278D01*
X0036318Y0061297D01*
G37*
D12*
G36*
X0039945Y0063238D02*
X0037153Y0060446D01*
X0036031Y0061568D01*
X0038823Y0064360D01*
X0039945Y0063238D01*
G37*
G36*
X0041059Y0062124D02*
X0038267Y0059332D01*
X0037145Y0060454D01*
X0039937Y0063246D01*
X0041059Y0062124D01*
G37*
G36*
X0042172Y0061011D02*
X0039380Y0058219D01*
X0038258Y0059341D01*
X0041050Y0062133D01*
X0042172Y0061011D01*
G37*
G36*
X0039372Y0058227D02*
X0042164Y0061019D01*
X0043286Y0059897D01*
X0040494Y0057105D01*
X0039372Y0058227D01*
G37*
G36*
X0044399Y0058784D02*
X0041607Y0055992D01*
X0040485Y0057114D01*
X0043277Y0059906D01*
X0044399Y0058784D01*
G37*
G36*
X0043277Y0052651D02*
X0040485Y0055443D01*
X0041607Y0056565D01*
X0044399Y0053773D01*
X0043277Y0052651D01*
G37*
G36*
X0042164Y0051538D02*
X0039372Y0054330D01*
X0040494Y0055452D01*
X0043286Y0052660D01*
X0042164Y0051538D01*
G37*
G36*
X0041050Y0050424D02*
X0038258Y0053216D01*
X0039380Y0054338D01*
X0042172Y0051546D01*
X0041050Y0050424D01*
G37*
G36*
X0038267Y0053224D02*
X0041059Y0050432D01*
X0039937Y0049310D01*
X0037145Y0052102D01*
X0038267Y0053224D01*
G37*
G36*
X0037153Y0052111D02*
X0039945Y0049319D01*
X0038823Y0048197D01*
X0036031Y0050989D01*
X0037153Y0052111D01*
G37*
G36*
X0036604Y0050989D02*
X0033812Y0048197D01*
X0032690Y0049319D01*
X0035482Y0052111D01*
X0036604Y0050989D01*
G37*
G36*
X0035491Y0052102D02*
X0032699Y0049310D01*
X0031577Y0050432D01*
X0034369Y0053224D01*
X0035491Y0052102D01*
G37*
G36*
X0030463Y0051546D02*
X0033255Y0054338D01*
X0034377Y0053216D01*
X0031585Y0050424D01*
X0030463Y0051546D01*
G37*
G36*
X0029350Y0052660D02*
X0032142Y0055452D01*
X0033264Y0054330D01*
X0030472Y0051538D01*
X0029350Y0052660D01*
G37*
G36*
X0028236Y0053773D02*
X0031028Y0056565D01*
X0032150Y0055443D01*
X0029358Y0052651D01*
X0028236Y0053773D01*
G37*
G36*
X0029358Y0059906D02*
X0032150Y0057114D01*
X0031028Y0055992D01*
X0028236Y0058784D01*
X0029358Y0059906D01*
G37*
G36*
X0032142Y0057105D02*
X0029350Y0059897D01*
X0030472Y0061019D01*
X0033264Y0058227D01*
X0032142Y0057105D01*
G37*
G36*
X0033255Y0058219D02*
X0030463Y0061011D01*
X0031585Y0062133D01*
X0034377Y0059341D01*
X0033255Y0058219D01*
G37*
G36*
X0034369Y0059332D02*
X0031577Y0062124D01*
X0032699Y0063246D01*
X0035491Y0060454D01*
X0034369Y0059332D01*
G37*
G36*
X0035482Y0060446D02*
X0032690Y0063238D01*
X0033812Y0064360D01*
X0036604Y0061568D01*
X0035482Y0060446D01*
G37*
D13*
X0036315Y0056315D03*
M02*
