G75*
%MOIN*%
%OFA0B0*%
%FSLAX25Y25*%
%IPPOS*%
%LPD*%
%AMOC8*
5,1,8,0,0,1.08239X$1,22.5*
%
%ADD10C,0.00600*%
%ADD11C,0.00300*%
%ADD12C,0.00500*%
%ADD13C,0.01197*%
%ADD14R,0.00080X0.00080*%
%ADD15R,0.01920X0.00080*%
%ADD16R,0.03360X0.00080*%
%ADD17R,0.04400X0.00080*%
%ADD18R,0.05200X0.00080*%
%ADD19R,0.05840X0.00080*%
%ADD20R,0.06480X0.00080*%
%ADD21R,0.06960X0.00080*%
%ADD22R,0.07440X0.00080*%
%ADD23R,0.07840X0.00080*%
%ADD24R,0.08320X0.00080*%
%ADD25R,0.08640X0.00080*%
%ADD26R,0.09120X0.00080*%
%ADD27R,0.09600X0.00080*%
%ADD28R,0.09760X0.00080*%
%ADD29R,0.10080X0.00080*%
%ADD30R,0.10560X0.00080*%
%ADD31R,0.10720X0.00080*%
%ADD32R,0.11040X0.00080*%
%ADD33R,0.11360X0.00080*%
%ADD34R,0.11680X0.00080*%
%ADD35R,0.11840X0.00080*%
%ADD36R,0.12160X0.00080*%
%ADD37R,0.12480X0.00080*%
%ADD38R,0.12640X0.00080*%
%ADD39R,0.05680X0.00080*%
%ADD40R,0.00160X0.00080*%
%ADD41R,0.05600X0.00080*%
%ADD42R,0.05040X0.00080*%
%ADD43R,0.05120X0.00080*%
%ADD44R,0.04720X0.00080*%
%ADD45R,0.04640X0.00080*%
%ADD46R,0.04320X0.00080*%
%ADD47R,0.04080X0.00080*%
%ADD48R,0.04240X0.00080*%
%ADD49R,0.03920X0.00080*%
%ADD50R,0.03760X0.00080*%
%ADD51R,0.03680X0.00080*%
%ADD52R,0.03520X0.00080*%
%ADD53R,0.03600X0.00080*%
%ADD54R,0.03520X0.00080*%
%ADD55R,0.03440X0.00080*%
%ADD56R,0.03280X0.00080*%
%ADD57R,0.03200X0.00080*%
%ADD58R,0.03120X0.00080*%
%ADD59R,0.03120X0.00080*%
%ADD60R,0.03040X0.00080*%
%ADD61R,0.03040X0.00080*%
%ADD62R,0.02960X0.00080*%
%ADD63R,0.02880X0.00080*%
%ADD64R,0.02800X0.00080*%
%ADD65R,0.02720X0.00080*%
%ADD66R,0.02720X0.00080*%
%ADD67R,0.02640X0.00080*%
%ADD68R,0.02640X0.00080*%
%ADD69R,0.02560X0.00080*%
%ADD70R,0.02480X0.00080*%
%ADD71R,0.02400X0.00080*%
%ADD72R,0.02320X0.00080*%
%ADD73R,0.02320X0.00080*%
%ADD74R,0.02240X0.00080*%
%ADD75R,0.02240X0.00080*%
%ADD76R,0.02160X0.00080*%
%ADD77R,0.02080X0.00080*%
%ADD78R,0.01920X0.00080*%
%ADD79R,0.00880X0.00080*%
%ADD80R,0.02000X0.00080*%
%ADD81R,0.01120X0.00080*%
%ADD82R,0.01360X0.00080*%
%ADD83R,0.01600X0.00080*%
%ADD84R,0.01760X0.00080*%
%ADD85R,0.03440X0.00080*%
%ADD86R,0.05760X0.00080*%
%ADD87R,0.05840X0.00080*%
%ADD88R,0.03920X0.00080*%
%ADD89R,0.03840X0.00080*%
%ADD90R,0.04000X0.00080*%
%ADD91R,0.01840X0.00080*%
%ADD92R,0.00240X0.00080*%
%ADD93R,0.04160X0.00080*%
%ADD94R,0.04560X0.00080*%
%ADD95R,0.04800X0.00080*%
%ADD96R,0.11440X0.00080*%
%ADD97R,0.10800X0.00080*%
%ADD98R,0.10480X0.00080*%
%ADD99R,0.10160X0.00080*%
%ADD100R,0.09440X0.00080*%
%ADD101R,0.07920X0.00080*%
%ADD102R,0.00100X0.00100*%
%ADD103R,0.00400X0.00100*%
%ADD104R,0.00300X0.00100*%
%ADD105R,0.00600X0.00100*%
%ADD106R,0.00900X0.00100*%
%ADD107R,0.00800X0.00100*%
%ADD108R,0.01000X0.00100*%
%ADD109R,0.01100X0.00100*%
%ADD110R,0.01900X0.00100*%
%ADD111R,0.01800X0.00100*%
%ADD112R,0.02100X0.00100*%
%ADD113R,0.02000X0.00100*%
%ADD114R,0.02200X0.00100*%
%ADD115R,0.02300X0.00100*%
%ADD116R,0.02700X0.00100*%
%ADD117R,0.02800X0.00100*%
%ADD118R,0.02600X0.00100*%
%ADD119R,0.02900X0.00100*%
%ADD120R,0.05100X0.00100*%
%ADD121R,0.04900X0.00100*%
%ADD122R,0.05300X0.00100*%
%ADD123R,0.05500X0.00100*%
%ADD124R,0.05700X0.00100*%
%ADD125R,0.05900X0.00100*%
%ADD126R,0.01400X0.00100*%
%ADD127R,0.01300X0.00100*%
%ADD128R,0.01200X0.00100*%
%ADD129R,0.01700X0.00100*%
%ADD130R,0.01500X0.00100*%
%ADD131R,0.00200X0.00100*%
%ADD132C,0.00800*%
D10*
X0023458Y0023406D02*
X0022724Y0024140D01*
X0022724Y0027076D01*
X0023458Y0027810D01*
X0024926Y0027810D01*
X0025660Y0027076D01*
X0025660Y0024140D01*
X0024926Y0023406D01*
X0023458Y0023406D01*
X0024226Y0021905D02*
X0025694Y0021905D01*
X0026428Y0021171D01*
X0023492Y0018235D01*
X0024226Y0017501D01*
X0025694Y0017501D01*
X0026428Y0018235D01*
X0026428Y0021171D01*
X0025660Y0023406D02*
X0024192Y0024874D01*
X0024226Y0021905D02*
X0023492Y0021171D01*
X0023492Y0018235D01*
X0027328Y0023406D02*
X0027328Y0027810D01*
X0030264Y0027810D01*
X0028796Y0025608D02*
X0027328Y0025608D01*
X0031165Y0019703D02*
X0034101Y0019703D01*
X0033367Y0017501D02*
X0033367Y0021905D01*
X0031165Y0019703D01*
X0029564Y0018235D02*
X0029564Y0017501D01*
X0028830Y0017501D01*
X0028830Y0018235D01*
X0029564Y0018235D01*
X0029564Y0017501D02*
X0028096Y0016033D01*
X0028479Y0009109D02*
X0028479Y0006173D01*
X0029947Y0004706D01*
X0031415Y0006173D01*
X0031415Y0009109D01*
X0033083Y0007641D02*
X0034551Y0009109D01*
X0034551Y0004706D01*
X0033083Y0004706D02*
X0036019Y0004706D01*
X0037687Y0004706D02*
X0038421Y0004706D01*
X0038421Y0005439D01*
X0037687Y0005439D01*
X0037687Y0004706D01*
X0039989Y0005439D02*
X0039989Y0008375D01*
X0040723Y0009109D01*
X0042191Y0009109D01*
X0042925Y0008375D01*
X0039989Y0005439D01*
X0040723Y0004706D01*
X0042191Y0004706D01*
X0042925Y0005439D01*
X0042925Y0008375D01*
X0043309Y0017501D02*
X0043309Y0019703D01*
X0042575Y0020437D01*
X0041841Y0019703D01*
X0041841Y0017501D01*
X0040373Y0017501D02*
X0040373Y0020437D01*
X0041107Y0020437D01*
X0041841Y0019703D01*
X0041140Y0023406D02*
X0044076Y0026342D01*
X0044076Y0027076D01*
X0043342Y0027810D01*
X0041874Y0027810D01*
X0041140Y0027076D01*
X0039472Y0025608D02*
X0036536Y0025608D01*
X0034868Y0023406D02*
X0034868Y0027810D01*
X0031932Y0027810D02*
X0031932Y0023406D01*
X0034868Y0023406D02*
X0031932Y0027810D01*
X0041140Y0023406D02*
X0044076Y0023406D01*
X0045744Y0024140D02*
X0048680Y0027076D01*
X0048680Y0024140D01*
X0047946Y0023406D01*
X0046478Y0023406D01*
X0045744Y0024140D01*
X0045744Y0027076D01*
X0046478Y0027810D01*
X0047946Y0027810D01*
X0048680Y0027076D01*
X0047179Y0020437D02*
X0047913Y0019703D01*
X0047913Y0017501D01*
X0046445Y0017501D02*
X0046445Y0019703D01*
X0047179Y0020437D01*
X0046445Y0019703D02*
X0045711Y0020437D01*
X0044977Y0020437D01*
X0044977Y0017501D01*
D11*
X0020014Y0009786D02*
X0018079Y0009786D01*
X0019047Y0009786D02*
X0019047Y0012689D01*
X0018079Y0011721D01*
X0021026Y0012205D02*
X0021026Y0010270D01*
X0022961Y0012205D01*
X0022961Y0010270D01*
X0022477Y0009786D01*
X0021509Y0009786D01*
X0021026Y0010270D01*
X0021026Y0012205D02*
X0021509Y0012689D01*
X0022477Y0012689D01*
X0022961Y0012205D01*
X0049588Y0011721D02*
X0050555Y0012689D01*
X0050555Y0009786D01*
X0049588Y0009786D02*
X0051523Y0009786D01*
X0052534Y0009786D02*
X0054469Y0009786D01*
X0053502Y0009786D02*
X0053502Y0012689D01*
X0052534Y0011721D01*
X0053018Y0099550D02*
X0052534Y0100034D01*
X0054469Y0101969D01*
X0054469Y0100034D01*
X0053985Y0099550D01*
X0053018Y0099550D01*
X0052534Y0100034D02*
X0052534Y0101969D01*
X0053018Y0102452D01*
X0053985Y0102452D01*
X0054469Y0101969D01*
X0051523Y0101969D02*
X0051523Y0101485D01*
X0049588Y0099550D01*
X0051523Y0099550D01*
X0051523Y0101969D02*
X0051039Y0102452D01*
X0050071Y0102452D01*
X0049588Y0101969D01*
X0020014Y0099550D02*
X0018079Y0099550D01*
X0019047Y0099550D02*
X0019047Y0102452D01*
X0018079Y0101485D01*
D12*
X0036318Y0065187D02*
X0034647Y0063516D01*
X0036318Y0065187D02*
X0037988Y0063516D01*
X0043556Y0057949D02*
X0045226Y0056278D01*
X0043556Y0054608D01*
X0037988Y0049040D02*
X0036318Y0047370D01*
X0034647Y0049040D01*
X0029080Y0054608D02*
X0027409Y0056278D01*
X0029080Y0057949D01*
D13*
X0036290Y0066651D03*
D14*
X0035119Y0084858D03*
X0034959Y0084858D03*
X0034479Y0084938D03*
X0033999Y0085018D03*
X0034479Y0086938D03*
X0034879Y0086858D03*
X0035599Y0086778D03*
X0035759Y0086778D03*
X0035919Y0086778D03*
X0036559Y0086778D03*
X0037039Y0086778D03*
X0038079Y0086938D03*
X0038079Y0084938D03*
X0037519Y0084858D03*
X0038959Y0085098D03*
X0041839Y0091978D03*
X0042239Y0091978D03*
X0033519Y0087178D03*
X0030319Y0100538D03*
X0034879Y0105658D03*
X0035039Y0105658D03*
X0035519Y0105738D03*
X0035679Y0105738D03*
X0035839Y0105738D03*
X0035999Y0105738D03*
X0036639Y0105738D03*
X0036799Y0105738D03*
X0036959Y0105738D03*
X0037679Y0105658D03*
X0039039Y0105338D03*
X0038959Y0107418D03*
X0037519Y0107658D03*
X0037359Y0107658D03*
X0035199Y0107658D03*
X0035039Y0107658D03*
X0034479Y0107578D03*
X0033999Y0107498D03*
X0033599Y0107418D03*
X0033279Y0107338D03*
D15*
X0036279Y0107658D03*
X0042039Y0100538D03*
X0042039Y0100378D03*
X0042039Y0100298D03*
X0042039Y0100058D03*
X0042039Y0099978D03*
X0042039Y0099738D03*
X0042039Y0099658D03*
X0042039Y0099498D03*
X0042039Y0099418D03*
X0042039Y0099338D03*
X0042039Y0099178D03*
X0042039Y0099018D03*
X0042039Y0098858D03*
X0042039Y0098618D03*
X0042039Y0098538D03*
X0042039Y0098378D03*
X0042039Y0098138D03*
X0042039Y0097978D03*
X0042039Y0097898D03*
X0042039Y0097738D03*
X0042039Y0097498D03*
X0042039Y0097338D03*
X0042039Y0097258D03*
X0042039Y0097098D03*
X0042039Y0096858D03*
X0042039Y0096698D03*
X0042039Y0096618D03*
X0042039Y0096458D03*
X0042039Y0096218D03*
X0042039Y0096138D03*
X0042039Y0095978D03*
X0042039Y0095818D03*
X0042039Y0095658D03*
X0042039Y0095498D03*
X0042039Y0095338D03*
X0042039Y0095258D03*
X0042039Y0095178D03*
X0042039Y0094938D03*
X0042039Y0094778D03*
X0042039Y0094698D03*
X0046519Y0094058D03*
X0046679Y0094858D03*
X0046679Y0095018D03*
X0046679Y0095098D03*
X0046679Y0095258D03*
X0046679Y0097258D03*
X0046679Y0097418D03*
X0046679Y0097498D03*
X0046679Y0097738D03*
X0036279Y0084858D03*
X0030519Y0091978D03*
X0030519Y0092058D03*
X0030519Y0092218D03*
X0030519Y0092458D03*
X0030519Y0092618D03*
X0030519Y0092698D03*
X0030519Y0092858D03*
X0030519Y0093018D03*
X0030519Y0093178D03*
X0030519Y0093418D03*
X0030519Y0093578D03*
X0030519Y0093738D03*
X0030519Y0093898D03*
X0030519Y0093978D03*
X0030519Y0094138D03*
X0030519Y0094298D03*
X0030519Y0094458D03*
X0030519Y0094698D03*
X0030519Y0094858D03*
X0030519Y0094938D03*
X0030519Y0095098D03*
X0030519Y0095258D03*
X0030519Y0095418D03*
X0030519Y0095578D03*
X0030519Y0095738D03*
X0030519Y0095898D03*
X0030519Y0096058D03*
X0030519Y0096218D03*
X0030519Y0096378D03*
X0030519Y0096538D03*
X0030519Y0096698D03*
X0030519Y0096938D03*
X0030519Y0097098D03*
X0030519Y0097178D03*
X0030519Y0097338D03*
X0030519Y0097498D03*
X0030519Y0097658D03*
X0030519Y0097818D03*
X0026039Y0094058D03*
X0025879Y0094858D03*
X0025879Y0095018D03*
X0025879Y0095098D03*
X0025879Y0095258D03*
X0025879Y0097258D03*
X0025879Y0097418D03*
X0025879Y0097738D03*
D16*
X0030199Y0104698D03*
X0031239Y0099338D03*
X0030199Y0087818D03*
X0036279Y0084938D03*
X0042359Y0087818D03*
X0041319Y0093178D03*
D17*
X0036319Y0085018D03*
X0040959Y0105418D03*
X0036319Y0107498D03*
X0031599Y0105418D03*
D18*
X0036239Y0085098D03*
D19*
X0036239Y0085178D03*
D20*
X0036239Y0085258D03*
X0036319Y0107258D03*
D21*
X0036239Y0107178D03*
X0036319Y0085338D03*
D22*
X0036239Y0085418D03*
X0036319Y0107098D03*
D23*
X0036279Y0085498D03*
D24*
X0036279Y0085578D03*
X0036279Y0106938D03*
D25*
X0036279Y0106858D03*
X0036279Y0085658D03*
D26*
X0036279Y0085738D03*
X0036279Y0106778D03*
D27*
X0036279Y0085818D03*
D28*
X0036279Y0085898D03*
X0036279Y0106618D03*
D29*
X0036279Y0085978D03*
D30*
X0036279Y0086058D03*
D31*
X0036279Y0086138D03*
D32*
X0036279Y0086218D03*
X0036279Y0106298D03*
D33*
X0036279Y0086298D03*
D34*
X0036279Y0086378D03*
X0036279Y0106138D03*
D35*
X0036279Y0106058D03*
X0036279Y0086458D03*
D36*
X0036279Y0086538D03*
X0036279Y0105978D03*
D37*
X0036279Y0105898D03*
X0036279Y0086618D03*
D38*
X0036279Y0086698D03*
X0036279Y0105818D03*
D39*
X0039919Y0105738D03*
X0032639Y0086778D03*
D40*
X0036839Y0086778D03*
X0042039Y0091978D03*
D41*
X0039959Y0086778D03*
X0032599Y0105738D03*
D42*
X0032239Y0105658D03*
X0040319Y0105658D03*
X0032239Y0086858D03*
D43*
X0040279Y0086858D03*
X0036279Y0107418D03*
D44*
X0031999Y0105578D03*
X0031999Y0086938D03*
X0040559Y0086938D03*
D45*
X0040759Y0087018D03*
X0031799Y0087018D03*
D46*
X0031559Y0087098D03*
X0040999Y0087098D03*
D47*
X0041359Y0087258D03*
X0031359Y0087178D03*
X0031199Y0087258D03*
X0041359Y0105258D03*
D48*
X0041199Y0087178D03*
D49*
X0041519Y0087338D03*
X0038719Y0094858D03*
X0038319Y0095098D03*
X0037839Y0095338D03*
X0037439Y0095578D03*
X0034719Y0097178D03*
X0034239Y0097418D03*
X0033839Y0097658D03*
X0033679Y0097738D03*
X0031039Y0105178D03*
X0041519Y0105178D03*
X0031039Y0087338D03*
D50*
X0030879Y0087418D03*
X0031439Y0099098D03*
X0030719Y0105018D03*
X0030879Y0105098D03*
X0041679Y0105098D03*
X0041119Y0093418D03*
X0041839Y0087498D03*
X0041679Y0087418D03*
D51*
X0041959Y0087578D03*
X0041799Y0105018D03*
X0030599Y0104938D03*
X0030599Y0087578D03*
X0030759Y0087498D03*
D52*
X0030439Y0087658D03*
X0031319Y0099258D03*
X0030439Y0104858D03*
X0042119Y0104858D03*
D53*
X0041999Y0104938D03*
X0041199Y0093338D03*
X0042079Y0087658D03*
X0031359Y0099178D03*
D54*
X0030359Y0104778D03*
X0030359Y0087738D03*
X0042199Y0104778D03*
D55*
X0042319Y0104698D03*
X0036319Y0107578D03*
X0042239Y0087738D03*
D56*
X0042479Y0087898D03*
X0042559Y0087978D03*
X0042559Y0104538D03*
X0042479Y0104618D03*
X0030079Y0104618D03*
X0029999Y0104538D03*
X0029999Y0087978D03*
X0030079Y0087898D03*
D57*
X0029879Y0088058D03*
X0031159Y0099418D03*
X0029879Y0104458D03*
X0041399Y0093098D03*
X0042679Y0088058D03*
X0042679Y0104458D03*
D58*
X0042799Y0104378D03*
X0042799Y0088138D03*
X0029759Y0088138D03*
X0029759Y0104378D03*
D59*
X0029679Y0104298D03*
X0029679Y0088218D03*
X0042879Y0088218D03*
X0042879Y0104298D03*
D60*
X0042999Y0104218D03*
X0042999Y0088298D03*
X0029559Y0088298D03*
X0029559Y0104218D03*
D61*
X0029479Y0104138D03*
X0031079Y0099498D03*
X0029479Y0088378D03*
X0041479Y0093018D03*
X0043079Y0088378D03*
X0043079Y0104138D03*
D62*
X0043199Y0104058D03*
X0043279Y0103978D03*
X0041519Y0092938D03*
X0043279Y0088538D03*
X0043199Y0088458D03*
X0031039Y0099578D03*
X0029279Y0103978D03*
X0029359Y0104058D03*
X0029279Y0088538D03*
X0029359Y0088458D03*
D63*
X0029159Y0088618D03*
X0029079Y0088698D03*
X0028999Y0088778D03*
X0028999Y0103738D03*
X0029079Y0103818D03*
X0029159Y0103898D03*
X0043399Y0103898D03*
X0043479Y0103818D03*
X0043559Y0103738D03*
X0043639Y0103658D03*
X0043639Y0088858D03*
X0043559Y0088778D03*
X0043479Y0088698D03*
D64*
X0043359Y0088618D03*
X0041599Y0092858D03*
X0030959Y0099658D03*
X0028959Y0103658D03*
X0028959Y0088858D03*
D65*
X0028839Y0088938D03*
X0028679Y0089098D03*
X0028679Y0103418D03*
X0028839Y0103578D03*
X0043719Y0103578D03*
X0043879Y0103418D03*
X0043879Y0089098D03*
X0043719Y0088938D03*
D66*
X0043799Y0089018D03*
X0043959Y0089178D03*
X0043959Y0103338D03*
X0043799Y0103498D03*
X0028759Y0103498D03*
X0028599Y0103338D03*
X0028599Y0089178D03*
X0028759Y0089018D03*
D67*
X0028559Y0089258D03*
X0028399Y0089418D03*
X0028319Y0103018D03*
X0028559Y0103258D03*
X0043999Y0103258D03*
X0044159Y0103098D03*
X0044239Y0103018D03*
X0044319Y0089578D03*
X0044159Y0089418D03*
X0043999Y0089258D03*
D68*
X0044079Y0089338D03*
X0041679Y0092778D03*
X0044079Y0103178D03*
X0030879Y0099738D03*
X0028479Y0103178D03*
X0028479Y0089338D03*
D69*
X0028279Y0089498D03*
X0028279Y0089578D03*
X0028199Y0089658D03*
X0028119Y0089738D03*
X0028039Y0089818D03*
X0028039Y0102698D03*
X0028119Y0102778D03*
X0028199Y0102858D03*
X0028279Y0102938D03*
X0028359Y0103098D03*
X0044279Y0102938D03*
X0044359Y0102858D03*
X0044439Y0102778D03*
X0044519Y0089818D03*
X0044439Y0089738D03*
X0044359Y0089658D03*
X0044199Y0089498D03*
D70*
X0044559Y0089898D03*
X0044639Y0089978D03*
X0044719Y0090058D03*
X0041759Y0092698D03*
X0044719Y0102458D03*
X0044639Y0102538D03*
X0044559Y0102618D03*
X0044559Y0102698D03*
X0030799Y0099818D03*
X0027999Y0102618D03*
X0027919Y0102538D03*
X0027839Y0102458D03*
X0027839Y0090058D03*
X0027919Y0089978D03*
X0027999Y0089898D03*
D71*
X0027799Y0090138D03*
X0027719Y0090218D03*
X0027719Y0090298D03*
X0027639Y0090378D03*
X0027559Y0090458D03*
X0030759Y0099898D03*
X0027719Y0102218D03*
X0027719Y0102298D03*
X0027799Y0102378D03*
X0027639Y0102138D03*
X0027559Y0102058D03*
X0044759Y0102378D03*
X0044839Y0102298D03*
X0044839Y0102218D03*
X0044919Y0102138D03*
X0044999Y0102058D03*
X0045079Y0090618D03*
X0044999Y0090458D03*
X0044919Y0090378D03*
X0044839Y0090298D03*
X0044839Y0090218D03*
X0044759Y0090138D03*
D72*
X0045039Y0090538D03*
X0045119Y0090698D03*
X0045279Y0090938D03*
X0045439Y0091178D03*
X0045279Y0101578D03*
X0045279Y0101658D03*
X0045119Y0101818D03*
X0045119Y0101898D03*
X0045039Y0101978D03*
X0027519Y0101978D03*
X0027439Y0101898D03*
X0027439Y0101818D03*
X0027279Y0101578D03*
X0027279Y0090938D03*
X0027439Y0090698D03*
X0027439Y0090618D03*
X0027519Y0090538D03*
D73*
X0027359Y0090778D03*
X0027199Y0101498D03*
X0027359Y0101738D03*
X0041759Y0092618D03*
X0045199Y0090778D03*
X0045199Y0101738D03*
D74*
X0045319Y0101498D03*
X0045399Y0101418D03*
X0045399Y0101338D03*
X0045559Y0101098D03*
X0045639Y0101018D03*
X0045639Y0100938D03*
X0045639Y0091578D03*
X0045559Y0091418D03*
X0045559Y0091338D03*
X0045399Y0091098D03*
X0045319Y0091018D03*
X0045239Y0090858D03*
X0027319Y0090858D03*
X0027239Y0091018D03*
X0027159Y0091098D03*
X0027159Y0091178D03*
X0026999Y0091338D03*
X0026999Y0091418D03*
X0026919Y0091578D03*
X0026919Y0100938D03*
X0026919Y0101018D03*
X0026999Y0101098D03*
X0027159Y0101338D03*
X0027159Y0101418D03*
X0027319Y0101658D03*
D75*
X0027079Y0101258D03*
X0027079Y0091258D03*
X0045479Y0091258D03*
X0045879Y0092058D03*
X0045879Y0100458D03*
X0045479Y0101258D03*
D76*
X0045519Y0101178D03*
X0045679Y0100858D03*
X0045759Y0100778D03*
X0045759Y0100698D03*
X0045839Y0100538D03*
X0045919Y0100378D03*
X0045919Y0100298D03*
X0045919Y0092138D03*
X0045839Y0091978D03*
X0045759Y0091818D03*
X0045759Y0091738D03*
X0045679Y0091658D03*
X0045599Y0091498D03*
X0041839Y0092538D03*
X0030719Y0099978D03*
X0027039Y0101178D03*
X0026879Y0100858D03*
X0026799Y0100778D03*
X0026799Y0100698D03*
X0026719Y0100618D03*
X0026719Y0100538D03*
X0026719Y0100458D03*
X0026639Y0100378D03*
X0026479Y0092538D03*
X0026559Y0092378D03*
X0026639Y0092138D03*
X0026639Y0092058D03*
X0026719Y0091978D03*
X0026799Y0091898D03*
X0026799Y0091818D03*
X0026879Y0091658D03*
X0026959Y0091498D03*
D77*
X0026839Y0091738D03*
X0026599Y0092218D03*
X0026599Y0092298D03*
X0026519Y0092458D03*
X0026439Y0092618D03*
X0026439Y0092698D03*
X0026359Y0092858D03*
X0026359Y0092938D03*
X0026359Y0093018D03*
X0026279Y0093098D03*
X0026199Y0093258D03*
X0026199Y0093418D03*
X0026119Y0093578D03*
X0026119Y0093738D03*
X0026039Y0093978D03*
X0026039Y0098458D03*
X0026119Y0098858D03*
X0026199Y0099018D03*
X0026199Y0099178D03*
X0026279Y0099418D03*
X0026359Y0099578D03*
X0026359Y0099658D03*
X0026359Y0099738D03*
X0026439Y0099818D03*
X0026439Y0099898D03*
X0026519Y0099978D03*
X0026519Y0100058D03*
X0026519Y0100138D03*
X0026599Y0100218D03*
X0026599Y0100298D03*
X0045799Y0100618D03*
X0045959Y0100218D03*
X0046039Y0100138D03*
X0046039Y0100058D03*
X0046039Y0099978D03*
X0046119Y0099898D03*
X0046119Y0099818D03*
X0046199Y0099738D03*
X0046199Y0099658D03*
X0046199Y0099578D03*
X0046279Y0099418D03*
X0046359Y0099178D03*
X0046359Y0099018D03*
X0046439Y0098938D03*
X0046679Y0094938D03*
X0046519Y0093978D03*
X0046359Y0093498D03*
X0046359Y0093258D03*
X0046279Y0093178D03*
X0046279Y0093098D03*
X0046199Y0092938D03*
X0046199Y0092858D03*
X0046119Y0092698D03*
X0046119Y0092618D03*
X0046039Y0092538D03*
X0046039Y0092458D03*
X0046039Y0092378D03*
X0045959Y0092298D03*
X0045959Y0092218D03*
X0045799Y0091898D03*
D78*
X0046759Y0095498D03*
X0046759Y0095658D03*
X0046759Y0095738D03*
X0046759Y0095978D03*
X0046759Y0096058D03*
X0046759Y0096138D03*
X0046759Y0096218D03*
X0046759Y0096298D03*
X0046759Y0096378D03*
X0046759Y0096458D03*
X0046759Y0096538D03*
X0046759Y0096778D03*
X0046759Y0096938D03*
X0046759Y0097018D03*
X0046599Y0098138D03*
X0038199Y0098138D03*
X0038199Y0098058D03*
X0038199Y0097978D03*
X0038199Y0097898D03*
X0038199Y0097818D03*
X0038199Y0097738D03*
X0038199Y0097658D03*
X0038199Y0097578D03*
X0038199Y0097498D03*
X0038199Y0097418D03*
X0038199Y0097338D03*
X0038199Y0097258D03*
X0038199Y0097178D03*
X0038199Y0097098D03*
X0038199Y0097018D03*
X0038199Y0096938D03*
X0038199Y0096858D03*
X0038199Y0098218D03*
X0038199Y0098298D03*
X0038199Y0098378D03*
X0038199Y0098458D03*
X0038199Y0098538D03*
X0038199Y0098618D03*
X0038199Y0098698D03*
X0038199Y0098778D03*
X0038199Y0098858D03*
X0038199Y0098938D03*
X0038199Y0099018D03*
X0038199Y0099098D03*
X0038199Y0099178D03*
X0038199Y0099258D03*
X0038199Y0099338D03*
X0038199Y0099418D03*
X0038199Y0099498D03*
X0038199Y0099578D03*
X0038199Y0099658D03*
X0038199Y0099738D03*
X0038199Y0099818D03*
X0038199Y0099898D03*
X0038199Y0099978D03*
X0038199Y0100058D03*
X0038199Y0100138D03*
X0038199Y0100218D03*
X0038199Y0100298D03*
X0038199Y0100378D03*
X0038199Y0100458D03*
X0038199Y0100538D03*
X0034359Y0100538D03*
X0034359Y0100458D03*
X0034359Y0100378D03*
X0034359Y0100298D03*
X0034359Y0100218D03*
X0034359Y0100138D03*
X0034359Y0100058D03*
X0034359Y0099978D03*
X0034359Y0099898D03*
X0034359Y0099818D03*
X0034359Y0099738D03*
X0034359Y0099658D03*
X0034359Y0099578D03*
X0034359Y0099498D03*
X0034359Y0099418D03*
X0034359Y0099338D03*
X0034359Y0099258D03*
X0034359Y0099178D03*
X0034359Y0099098D03*
X0034359Y0095658D03*
X0034359Y0095578D03*
X0034359Y0095498D03*
X0034359Y0095418D03*
X0034359Y0095338D03*
X0034359Y0095258D03*
X0034359Y0095178D03*
X0034359Y0095098D03*
X0034359Y0095018D03*
X0034359Y0094938D03*
X0034359Y0094858D03*
X0034359Y0094778D03*
X0034359Y0094698D03*
X0034359Y0094618D03*
X0034359Y0094538D03*
X0034359Y0094458D03*
X0034359Y0094378D03*
X0034359Y0094298D03*
X0034359Y0094218D03*
X0034359Y0094138D03*
X0034359Y0094058D03*
X0034359Y0093978D03*
X0034359Y0093898D03*
X0034359Y0093818D03*
X0034359Y0093738D03*
X0034359Y0093658D03*
X0034359Y0093578D03*
X0034359Y0093498D03*
X0034359Y0093418D03*
X0034359Y0093338D03*
X0034359Y0093258D03*
X0034359Y0093178D03*
X0034359Y0093098D03*
X0034359Y0093018D03*
X0034359Y0092938D03*
X0034359Y0092858D03*
X0034359Y0092778D03*
X0034359Y0092698D03*
X0034359Y0092618D03*
X0034359Y0092538D03*
X0034359Y0092458D03*
X0034359Y0092378D03*
X0034359Y0092298D03*
X0034359Y0092218D03*
X0034359Y0092138D03*
X0034359Y0092058D03*
X0034359Y0091978D03*
X0038199Y0091978D03*
X0038199Y0092058D03*
X0038199Y0092138D03*
X0038199Y0092218D03*
X0038199Y0092298D03*
X0038199Y0092378D03*
X0038199Y0092458D03*
X0038199Y0092538D03*
X0038199Y0092618D03*
X0038199Y0092698D03*
X0038199Y0092778D03*
X0038199Y0092858D03*
X0038199Y0092938D03*
X0038199Y0093018D03*
X0038199Y0093098D03*
X0038199Y0093178D03*
X0038199Y0093258D03*
X0038199Y0093338D03*
X0038199Y0093418D03*
X0025959Y0094378D03*
X0025799Y0095498D03*
X0025799Y0095658D03*
X0025799Y0095818D03*
X0025799Y0095978D03*
X0025799Y0096058D03*
X0025799Y0096138D03*
X0025799Y0096218D03*
X0025799Y0096298D03*
X0025799Y0096378D03*
X0025799Y0096458D03*
X0025799Y0096618D03*
X0025799Y0096778D03*
X0025799Y0096938D03*
X0025799Y0097098D03*
X0025959Y0098058D03*
X0025959Y0098138D03*
D79*
X0030559Y0100458D03*
X0042079Y0092058D03*
D80*
X0041919Y0092458D03*
X0041999Y0094858D03*
X0041999Y0095018D03*
X0041999Y0095098D03*
X0041999Y0095418D03*
X0041999Y0095578D03*
X0041999Y0095738D03*
X0041999Y0095898D03*
X0041999Y0096058D03*
X0041999Y0096298D03*
X0041999Y0096378D03*
X0041999Y0096538D03*
X0041999Y0096778D03*
X0041999Y0096938D03*
X0041999Y0097018D03*
X0041999Y0097178D03*
X0041999Y0097418D03*
X0041999Y0097578D03*
X0041999Y0097658D03*
X0041999Y0097818D03*
X0041999Y0098058D03*
X0041999Y0098218D03*
X0041999Y0098298D03*
X0041999Y0098458D03*
X0041999Y0098698D03*
X0041999Y0098778D03*
X0041999Y0098938D03*
X0041999Y0099098D03*
X0041999Y0099258D03*
X0041999Y0099578D03*
X0041999Y0099818D03*
X0041999Y0099898D03*
X0041999Y0100138D03*
X0041999Y0100218D03*
X0041999Y0100458D03*
X0046239Y0099498D03*
X0046319Y0099338D03*
X0046319Y0099258D03*
X0046399Y0099098D03*
X0046399Y0098858D03*
X0046479Y0098778D03*
X0046479Y0098698D03*
X0046479Y0098618D03*
X0046479Y0098538D03*
X0046559Y0098458D03*
X0046559Y0098378D03*
X0046559Y0098298D03*
X0046559Y0098218D03*
X0046559Y0098058D03*
X0046639Y0097978D03*
X0046639Y0097898D03*
X0046639Y0097818D03*
X0046639Y0097658D03*
X0046719Y0097578D03*
X0046719Y0097338D03*
X0046719Y0097178D03*
X0046719Y0097098D03*
X0046719Y0096858D03*
X0046719Y0096698D03*
X0046719Y0096618D03*
X0046719Y0095898D03*
X0046719Y0095818D03*
X0046719Y0095578D03*
X0046719Y0095418D03*
X0046719Y0095338D03*
X0046719Y0095178D03*
X0046639Y0094778D03*
X0046639Y0094698D03*
X0046639Y0094618D03*
X0046639Y0094538D03*
X0046559Y0094458D03*
X0046639Y0094378D03*
X0046559Y0094298D03*
X0046559Y0094218D03*
X0046559Y0094138D03*
X0046479Y0093898D03*
X0046479Y0093818D03*
X0046479Y0093738D03*
X0046399Y0093658D03*
X0046399Y0093578D03*
X0046399Y0093418D03*
X0046319Y0093338D03*
X0046239Y0093018D03*
X0046159Y0092778D03*
X0030559Y0092778D03*
X0030559Y0092938D03*
X0030559Y0093098D03*
X0030559Y0093258D03*
X0030559Y0093338D03*
X0030559Y0093498D03*
X0030559Y0093658D03*
X0030559Y0093818D03*
X0030559Y0094058D03*
X0030559Y0094218D03*
X0030559Y0094378D03*
X0030559Y0094538D03*
X0030559Y0094618D03*
X0030559Y0094778D03*
X0030559Y0095018D03*
X0030559Y0095178D03*
X0030559Y0095338D03*
X0030559Y0095498D03*
X0030559Y0095658D03*
X0030559Y0095818D03*
X0030559Y0095978D03*
X0030559Y0096138D03*
X0030559Y0096298D03*
X0030559Y0096458D03*
X0030559Y0096618D03*
X0030559Y0096778D03*
X0030559Y0096858D03*
X0030559Y0097018D03*
X0030559Y0097258D03*
X0030559Y0097418D03*
X0030559Y0097578D03*
X0030559Y0097738D03*
X0030639Y0100058D03*
X0026319Y0099498D03*
X0026239Y0099338D03*
X0026239Y0099258D03*
X0026159Y0099098D03*
X0026159Y0098938D03*
X0026079Y0098778D03*
X0026079Y0098698D03*
X0026079Y0098618D03*
X0026079Y0098538D03*
X0025999Y0098378D03*
X0025999Y0098298D03*
X0025999Y0098218D03*
X0025919Y0097978D03*
X0025919Y0097898D03*
X0025919Y0097818D03*
X0025919Y0097658D03*
X0025919Y0097578D03*
X0025839Y0097498D03*
X0025839Y0097338D03*
X0025839Y0097178D03*
X0025839Y0097018D03*
X0025839Y0096858D03*
X0025839Y0096698D03*
X0025839Y0096538D03*
X0025839Y0095898D03*
X0025839Y0095738D03*
X0025839Y0095578D03*
X0025839Y0095418D03*
X0025839Y0095338D03*
X0025839Y0095178D03*
X0025839Y0094938D03*
X0025919Y0094778D03*
X0025919Y0094698D03*
X0025919Y0094618D03*
X0025919Y0094538D03*
X0025999Y0094458D03*
X0025999Y0094298D03*
X0025999Y0094218D03*
X0025999Y0094138D03*
X0026079Y0093898D03*
X0026079Y0093818D03*
X0026159Y0093658D03*
X0026159Y0093498D03*
X0026239Y0093338D03*
X0026239Y0093178D03*
X0026399Y0092778D03*
X0030559Y0092538D03*
X0030559Y0092378D03*
X0030559Y0092298D03*
X0030559Y0092138D03*
D81*
X0030519Y0100378D03*
X0042039Y0092138D03*
D82*
X0041999Y0092218D03*
X0030559Y0100298D03*
D83*
X0030599Y0100218D03*
X0041959Y0092298D03*
D84*
X0041959Y0092378D03*
D85*
X0041279Y0093258D03*
D86*
X0040119Y0093498D03*
X0040119Y0093578D03*
X0040119Y0093658D03*
X0040119Y0093738D03*
X0040119Y0093818D03*
X0040119Y0093898D03*
X0040119Y0093978D03*
X0040119Y0094058D03*
X0040119Y0094138D03*
X0040119Y0094218D03*
X0040119Y0094298D03*
X0040119Y0094378D03*
X0040119Y0094458D03*
X0040119Y0094538D03*
X0036279Y0095738D03*
X0036279Y0095818D03*
X0036279Y0095898D03*
X0036279Y0095978D03*
X0036279Y0096058D03*
X0036279Y0096138D03*
X0036279Y0096218D03*
X0036279Y0096298D03*
X0036279Y0096378D03*
X0036279Y0096458D03*
X0036279Y0096538D03*
X0036279Y0096618D03*
X0036279Y0096698D03*
X0036279Y0096778D03*
X0032439Y0097978D03*
X0032439Y0098058D03*
X0032439Y0098138D03*
X0032439Y0098218D03*
X0032439Y0098298D03*
X0032439Y0098378D03*
X0032439Y0098458D03*
X0032439Y0098538D03*
X0032439Y0098618D03*
X0032439Y0098698D03*
X0032439Y0098778D03*
X0032439Y0098858D03*
X0032439Y0098938D03*
X0032439Y0099018D03*
X0036279Y0107338D03*
D87*
X0032479Y0097898D03*
X0040079Y0094618D03*
D88*
X0038959Y0094698D03*
X0038799Y0094778D03*
X0038559Y0094938D03*
X0038399Y0095018D03*
X0038159Y0095178D03*
X0037999Y0095258D03*
X0037759Y0095418D03*
X0037599Y0095498D03*
X0037359Y0095658D03*
X0034959Y0097018D03*
X0034799Y0097098D03*
X0034399Y0097338D03*
X0034159Y0097498D03*
X0033999Y0097578D03*
X0033599Y0097818D03*
D89*
X0035239Y0096858D03*
D90*
X0035079Y0096938D03*
X0034599Y0097258D03*
X0031159Y0105258D03*
D91*
X0030639Y0100138D03*
D92*
X0030559Y0100538D03*
D93*
X0031399Y0105338D03*
X0041239Y0105338D03*
D94*
X0040799Y0105498D03*
X0031759Y0105498D03*
D95*
X0040519Y0105578D03*
D96*
X0036319Y0106218D03*
D97*
X0036239Y0106378D03*
D98*
X0036239Y0106458D03*
D99*
X0036319Y0106538D03*
D100*
X0036279Y0106698D03*
D101*
X0036319Y0107018D03*
D102*
X0034209Y0080328D03*
X0034209Y0074428D03*
X0038609Y0074428D03*
D103*
X0034159Y0074528D03*
X0034159Y0080228D03*
D104*
X0035209Y0074828D03*
X0037609Y0074828D03*
X0038609Y0074528D03*
X0038609Y0080228D03*
D105*
X0038559Y0080128D03*
X0038559Y0074628D03*
X0034259Y0074628D03*
X0034259Y0080128D03*
D106*
X0034209Y0080028D03*
X0034209Y0074728D03*
X0038609Y0080028D03*
D107*
X0038559Y0074728D03*
D108*
X0034259Y0074828D03*
D109*
X0034309Y0079928D03*
X0036409Y0080728D03*
X0036409Y0080828D03*
X0036409Y0080928D03*
X0036409Y0081028D03*
X0038609Y0074828D03*
D110*
X0038309Y0075028D03*
X0038009Y0075728D03*
X0038009Y0075828D03*
X0037909Y0075928D03*
X0037909Y0076028D03*
X0034909Y0076028D03*
X0034909Y0075928D03*
X0034809Y0075828D03*
X0034809Y0075728D03*
X0034509Y0075028D03*
X0034509Y0074928D03*
D111*
X0038259Y0074928D03*
D112*
X0038309Y0075128D03*
X0038309Y0075228D03*
X0037909Y0076128D03*
X0037909Y0076228D03*
X0038009Y0076528D03*
X0038109Y0076628D03*
X0038109Y0078128D03*
X0038009Y0078228D03*
X0036409Y0079928D03*
X0034809Y0078228D03*
X0034709Y0078128D03*
X0034709Y0076628D03*
X0034809Y0076528D03*
X0034909Y0076228D03*
X0034909Y0076128D03*
X0034509Y0075228D03*
X0034509Y0075128D03*
D113*
X0034559Y0075328D03*
X0034659Y0075428D03*
X0034659Y0075528D03*
X0034759Y0075628D03*
X0038059Y0075628D03*
X0038159Y0075528D03*
X0038159Y0075428D03*
X0038259Y0075328D03*
D114*
X0037959Y0076428D03*
X0034859Y0076428D03*
X0034859Y0076328D03*
D115*
X0034509Y0076728D03*
X0034509Y0078028D03*
X0034909Y0078328D03*
X0037909Y0078328D03*
X0038309Y0078028D03*
X0038309Y0076728D03*
X0037909Y0076328D03*
D116*
X0038609Y0076828D03*
X0038709Y0077028D03*
X0038709Y0077128D03*
X0038809Y0077328D03*
X0038709Y0077428D03*
X0038709Y0077728D03*
X0038609Y0077928D03*
X0036409Y0079828D03*
X0034209Y0077928D03*
X0034009Y0077328D03*
X0034209Y0076828D03*
D117*
X0034059Y0076928D03*
X0034059Y0077028D03*
X0034059Y0077128D03*
X0034059Y0077428D03*
X0034059Y0077528D03*
X0034059Y0077628D03*
X0034059Y0077728D03*
X0034159Y0077828D03*
X0038759Y0077628D03*
X0038759Y0077528D03*
X0038759Y0077228D03*
X0038759Y0076928D03*
D118*
X0034059Y0077228D03*
D119*
X0038709Y0077828D03*
D120*
X0036409Y0078428D03*
X0036409Y0078528D03*
X0036409Y0078928D03*
X0036409Y0079028D03*
D121*
X0036409Y0078828D03*
X0036409Y0078728D03*
X0036409Y0078628D03*
D122*
X0036409Y0079128D03*
D123*
X0036409Y0079228D03*
X0036409Y0079328D03*
D124*
X0036409Y0079428D03*
X0036409Y0079728D03*
D125*
X0036409Y0079628D03*
X0036409Y0079528D03*
D126*
X0034259Y0079828D03*
D127*
X0036409Y0080228D03*
X0036409Y0080328D03*
X0036409Y0080428D03*
X0036409Y0080528D03*
X0036409Y0080628D03*
X0038509Y0079828D03*
D128*
X0038559Y0079928D03*
D129*
X0036409Y0080028D03*
D130*
X0036409Y0080128D03*
D131*
X0038659Y0080328D03*
D132*
X0038776Y0039858D02*
X0033776Y0039858D01*
X0031276Y0037358D01*
X0031276Y0032358D01*
X0033776Y0029858D01*
X0038776Y0029858D01*
X0041276Y0032358D01*
X0041276Y0037358D01*
X0038776Y0039858D01*
M02*
